<svg xmlns="http://www.w3.org/2000/svg" xmlns:xlink="http://www.w3.org/1999/xlink" viewBox="0 0 96.2 60.3"><defs><path id="a" d="M32.9 13c1.5 0 2.8 1.2 2.8 2.7 0 1.5-1.2 2.7-2.8 2.7-1.5 0-2.8-1.2-2.8-2.7 0-1.5 1.2-2.7 2.8-2.7zm46.5 30.9c-3.4.7-7.7 1.8-7.7 3.8 0 1.9 2.1 2.3 3.8 1.9 3.6-.6 4-2.7 3.9-5.7zM20.7 29.2c0-3.3-1.7-4.4-4.3-3.9-2.1.4-4 2.3-4.2 5.2 0 .5-.1 1.1 0 1.9.1 2 1.6 2.9 4 2.9 3.9-.1 4.5-3.9 4.5-6.1zm44.9-2.6c-.3 5.1-1.3 8.7-4.7 8.7-1.3 0-1.8-.7-1.8-1.7.1-11.6.4-16.1.4-19.1 0-1.5-1.1-2.7-2.6-2.7s-2.8 1.3-2.8 2.8c0 2.6.1 4.6.2 11.6-.3 5.9-1.6 9.1-5.2 9.1-1.8 0-2.5-1.2-2.5-2.2 0-2.9.1-6.5.2-9.5h3.1c1 0 1.8-.7 1.8-1.7s-.6-1.8-2.1-1.8h-2.8c0-1.7.1-3.3.1-4.4 0-1.5-1.2-2.7-2.7-2.7-1.5 0-2.7 1.2-2.7 2.7v4.4c-1.2 0-1.9.8-1.9 1.7s.7 1.6 2.1 1.6v3.8c-.2 5.6-1.3 8-4.4 8-1.6 0-2.1-1.5-2.1-2.4 0-1.7.1-4.8.3-9.6.1-1.4-1-2.8-2.5-2.8s-2.5 1.3-2.5 2.7v1.3c-.2 3.9-1.3 7.9-6.3 10.2 4-7 .1-14.4-6-14.4-2.9 0-4.7 1-5.9 2 0-2.2.1-6 .1-6 0-2.7-1-4.8-4.3-4.9-1.9 0-3.4.8-4.3 2.8-.3.7-.2 1.5.4 1.9.5.3 1.4.1 1.8-.5.3-.4.5-.4.7-.4.4 0 .4.7.4 1.1 0 .3.3 4.1.2 16 0 3.3 2.6 7.5 8.9 7.5 6.3 0 11.2-1.6 14.3-4.9.1 3.1 3.1 4.8 5.9 4.8 2.9 0 5-.6 6.4-2.2 1.1 1.3 3 2.2 5.5 2.2 2.9 0 5-1 6.6-2.8 1 1.7 3.2 2.8 5.4 2.8 3.4 0 5.6-1.1 7-3.4 1.2 1.9 3.3 3.3 6.2 3.4 3.8.1 5.3-1.8 5.3-1.8l.2 2.3c-6.8 1.7-11.5 3-11.5 7.6 0 2.9 2.7 6.3 8.8 5.5 7-1 7.3-6.5 7.3-10.2 3.3-1.1 4.6-2.5 5.6-4.7.4-.9.4-2-.6-2.6-.8-.4-2-.2-2.6.8-1.1 1.6-2.1 2.3-2.8 2.5-.2-1.4-.1-7.6-.1-7.6 0-3.1.2-5 .2-7 0-1.5-1.1-2.7-2.6-2.7s-2.6 1.2-2.6 2.7c0 2 .1 3.3 0 5.5-.1 4.5-2.4 5.4-4.6 5.4-2.2 0-3.1-2.3-3.1-4.9 0-2.2.1-3.9.1-5.9 0-1.5-.9-2.7-2.4-2.7s-2.5 1.2-2.5 2.7v2.1z"/></defs><clipPath id="b"><use xlink:href="#a" overflow="visible"/></clipPath><g clip-path="url(#b)"><defs><path id="c" d="M-114.5-20.6h1400v639h-1400z"/></defs><clipPath id="d"><use xlink:href="#c" overflow="visible"/></clipPath><path clip-path="url(#d)" fill="#fff" d="M-1.5 6.4h96v52h-96z"/></g></svg>